<mxfile host="app.diagrams.net" modified="2023-11-20T01:51:02.988Z" agent="Mozilla/5.0 (Macintosh; Intel Mac OS X 10_15_7) AppleWebKit/605.1.15 (KHTML, like Gecko) Version/17.0 Safari/605.1.15" etag="AzrM7pPmuf1HrKFV65tW" version="22.1.3" type="device">
  <diagram name="페이지-1" id="5OVql0r5Q-L2hhhAdeXT">
    <mxGraphModel dx="1194" dy="825" grid="1" gridSize="10" guides="1" tooltips="1" connect="1" arrows="1" fold="1" page="1" pageScale="1" pageWidth="827" pageHeight="1169" math="0" shadow="0">
      <root>
        <mxCell id="0" />
        <mxCell id="1" parent="0" />
        <mxCell id="OmIpf55tnqkhPxUXq3zW-25" value="" style="edgeStyle=orthogonalEdgeStyle;rounded=0;orthogonalLoop=1;jettySize=auto;html=1;" edge="1" parent="1" source="OmIpf55tnqkhPxUXq3zW-2" target="OmIpf55tnqkhPxUXq3zW-24">
          <mxGeometry relative="1" as="geometry" />
        </mxCell>
        <mxCell id="OmIpf55tnqkhPxUXq3zW-2" value="시작" style="ellipse;whiteSpace=wrap;html=1;" vertex="1" parent="1">
          <mxGeometry x="354" y="20" width="120" height="80" as="geometry" />
        </mxCell>
        <mxCell id="OmIpf55tnqkhPxUXq3zW-28" value="" style="edgeStyle=orthogonalEdgeStyle;rounded=0;orthogonalLoop=1;jettySize=auto;html=1;" edge="1" parent="1" source="OmIpf55tnqkhPxUXq3zW-24" target="OmIpf55tnqkhPxUXq3zW-27">
          <mxGeometry relative="1" as="geometry" />
        </mxCell>
        <mxCell id="OmIpf55tnqkhPxUXq3zW-24" value="게임안내&amp;nbsp;&lt;br&gt;0. 종료 1. 가위 2. 바위 3. 보" style="whiteSpace=wrap;html=1;" vertex="1" parent="1">
          <mxGeometry x="341" y="190" width="146" height="60" as="geometry" />
        </mxCell>
        <mxCell id="OmIpf55tnqkhPxUXq3zW-32" value="0~3 외 값" style="edgeStyle=orthogonalEdgeStyle;rounded=0;orthogonalLoop=1;jettySize=auto;html=1;" edge="1" parent="1" source="OmIpf55tnqkhPxUXq3zW-27" target="OmIpf55tnqkhPxUXq3zW-31">
          <mxGeometry relative="1" as="geometry" />
        </mxCell>
        <mxCell id="OmIpf55tnqkhPxUXq3zW-36" value="1~3번" style="edgeStyle=orthogonalEdgeStyle;rounded=0;orthogonalLoop=1;jettySize=auto;html=1;" edge="1" parent="1" source="OmIpf55tnqkhPxUXq3zW-27" target="OmIpf55tnqkhPxUXq3zW-35">
          <mxGeometry relative="1" as="geometry" />
        </mxCell>
        <mxCell id="OmIpf55tnqkhPxUXq3zW-51" value="0번" style="edgeStyle=orthogonalEdgeStyle;rounded=0;orthogonalLoop=1;jettySize=auto;html=1;entryX=0;entryY=0.5;entryDx=0;entryDy=0;" edge="1" parent="1" source="OmIpf55tnqkhPxUXq3zW-27" target="OmIpf55tnqkhPxUXq3zW-49">
          <mxGeometry relative="1" as="geometry">
            <mxPoint x="120" y="980" as="targetPoint" />
            <Array as="points">
              <mxPoint x="130" y="360" />
              <mxPoint x="130" y="960" />
            </Array>
            <mxPoint as="offset" />
          </mxGeometry>
        </mxCell>
        <mxCell id="OmIpf55tnqkhPxUXq3zW-27" value="사용자 번호&lt;br&gt;입력" style="rhombus;whiteSpace=wrap;html=1;" vertex="1" parent="1">
          <mxGeometry x="374" y="320" width="80" height="80" as="geometry" />
        </mxCell>
        <mxCell id="OmIpf55tnqkhPxUXq3zW-52" style="edgeStyle=orthogonalEdgeStyle;rounded=0;orthogonalLoop=1;jettySize=auto;html=1;entryX=1;entryY=0.5;entryDx=0;entryDy=0;fillColor=#f8cecc;strokeColor=#b85450;dashed=1;" edge="1" parent="1" source="OmIpf55tnqkhPxUXq3zW-31" target="OmIpf55tnqkhPxUXq3zW-24">
          <mxGeometry relative="1" as="geometry">
            <Array as="points">
              <mxPoint x="700" y="360" />
              <mxPoint x="700" y="220" />
            </Array>
          </mxGeometry>
        </mxCell>
        <mxCell id="OmIpf55tnqkhPxUXq3zW-31" value="오류 출력" style="shape=parallelogram;perimeter=parallelogramPerimeter;whiteSpace=wrap;html=1;fixedSize=1;" vertex="1" parent="1">
          <mxGeometry x="530" y="330" width="140" height="60" as="geometry" />
        </mxCell>
        <mxCell id="OmIpf55tnqkhPxUXq3zW-38" value="" style="edgeStyle=orthogonalEdgeStyle;rounded=0;orthogonalLoop=1;jettySize=auto;html=1;exitX=0.5;exitY=1;exitDx=0;exitDy=0;" edge="1" parent="1" source="OmIpf55tnqkhPxUXq3zW-35" target="OmIpf55tnqkhPxUXq3zW-37">
          <mxGeometry relative="1" as="geometry" />
        </mxCell>
        <mxCell id="OmIpf55tnqkhPxUXq3zW-41" style="edgeStyle=orthogonalEdgeStyle;rounded=0;orthogonalLoop=1;jettySize=auto;html=1;entryX=0.5;entryY=0;entryDx=0;entryDy=0;exitX=0.5;exitY=1;exitDx=0;exitDy=0;" edge="1" parent="1" source="OmIpf55tnqkhPxUXq3zW-35" target="OmIpf55tnqkhPxUXq3zW-39">
          <mxGeometry relative="1" as="geometry" />
        </mxCell>
        <mxCell id="OmIpf55tnqkhPxUXq3zW-42" style="edgeStyle=orthogonalEdgeStyle;rounded=0;orthogonalLoop=1;jettySize=auto;html=1;entryX=0.5;entryY=0;entryDx=0;entryDy=0;exitX=0.5;exitY=1;exitDx=0;exitDy=0;" edge="1" parent="1" source="OmIpf55tnqkhPxUXq3zW-35" target="OmIpf55tnqkhPxUXq3zW-40">
          <mxGeometry relative="1" as="geometry" />
        </mxCell>
        <mxCell id="OmIpf55tnqkhPxUXq3zW-35" value="컴퓨터 랜덤값과 비교" style="shape=parallelogram;perimeter=parallelogramPerimeter;whiteSpace=wrap;html=1;fixedSize=1;" vertex="1" parent="1">
          <mxGeometry x="354" y="490" width="120" height="60" as="geometry" />
        </mxCell>
        <mxCell id="OmIpf55tnqkhPxUXq3zW-45" style="edgeStyle=orthogonalEdgeStyle;rounded=0;orthogonalLoop=1;jettySize=auto;html=1;entryX=0.5;entryY=0;entryDx=0;entryDy=0;" edge="1" parent="1" source="OmIpf55tnqkhPxUXq3zW-37" target="OmIpf55tnqkhPxUXq3zW-44">
          <mxGeometry relative="1" as="geometry">
            <Array as="points">
              <mxPoint x="274" y="750" />
              <mxPoint x="414" y="750" />
            </Array>
          </mxGeometry>
        </mxCell>
        <mxCell id="OmIpf55tnqkhPxUXq3zW-37" value="사용자 승리&amp;nbsp;" style="whiteSpace=wrap;html=1;" vertex="1" parent="1">
          <mxGeometry x="214" y="660" width="120" height="60" as="geometry" />
        </mxCell>
        <mxCell id="OmIpf55tnqkhPxUXq3zW-54" style="edgeStyle=orthogonalEdgeStyle;rounded=0;orthogonalLoop=1;jettySize=auto;html=1;entryX=0;entryY=0.5;entryDx=0;entryDy=0;" edge="1" parent="1" source="OmIpf55tnqkhPxUXq3zW-39" target="OmIpf55tnqkhPxUXq3zW-53">
          <mxGeometry relative="1" as="geometry" />
        </mxCell>
        <mxCell id="OmIpf55tnqkhPxUXq3zW-39" value="비긴경우" style="whiteSpace=wrap;html=1;" vertex="1" parent="1">
          <mxGeometry x="500" y="660" width="120" height="60" as="geometry" />
        </mxCell>
        <mxCell id="OmIpf55tnqkhPxUXq3zW-47" style="edgeStyle=orthogonalEdgeStyle;rounded=0;orthogonalLoop=1;jettySize=auto;html=1;entryX=0.5;entryY=0;entryDx=0;entryDy=0;" edge="1" parent="1" source="OmIpf55tnqkhPxUXq3zW-40" target="OmIpf55tnqkhPxUXq3zW-44">
          <mxGeometry relative="1" as="geometry" />
        </mxCell>
        <mxCell id="OmIpf55tnqkhPxUXq3zW-40" value="사용자 패배" style="whiteSpace=wrap;html=1;" vertex="1" parent="1">
          <mxGeometry x="354" y="660" width="120" height="60" as="geometry" />
        </mxCell>
        <mxCell id="OmIpf55tnqkhPxUXq3zW-50" value="" style="edgeStyle=orthogonalEdgeStyle;rounded=0;orthogonalLoop=1;jettySize=auto;html=1;" edge="1" parent="1" source="OmIpf55tnqkhPxUXq3zW-44" target="OmIpf55tnqkhPxUXq3zW-49">
          <mxGeometry relative="1" as="geometry" />
        </mxCell>
        <mxCell id="OmIpf55tnqkhPxUXq3zW-44" value="결과 출력" style="shape=parallelogram;perimeter=parallelogramPerimeter;whiteSpace=wrap;html=1;fixedSize=1;" vertex="1" parent="1">
          <mxGeometry x="354" y="790" width="120" height="60" as="geometry" />
        </mxCell>
        <mxCell id="OmIpf55tnqkhPxUXq3zW-49" value="게임종료" style="whiteSpace=wrap;html=1;" vertex="1" parent="1">
          <mxGeometry x="354" y="930" width="120" height="60" as="geometry" />
        </mxCell>
        <mxCell id="OmIpf55tnqkhPxUXq3zW-55" style="edgeStyle=orthogonalEdgeStyle;rounded=0;orthogonalLoop=1;jettySize=auto;html=1;entryX=1;entryY=0.5;entryDx=0;entryDy=0;fillColor=#f8cecc;strokeColor=#b85450;dashed=1;" edge="1" parent="1" source="OmIpf55tnqkhPxUXq3zW-53" target="OmIpf55tnqkhPxUXq3zW-24">
          <mxGeometry relative="1" as="geometry">
            <Array as="points">
              <mxPoint x="720" y="220" />
            </Array>
          </mxGeometry>
        </mxCell>
        <mxCell id="OmIpf55tnqkhPxUXq3zW-53" value="결과 출력" style="shape=parallelogram;perimeter=parallelogramPerimeter;whiteSpace=wrap;html=1;fixedSize=1;" vertex="1" parent="1">
          <mxGeometry x="660" y="660" width="120" height="60" as="geometry" />
        </mxCell>
      </root>
    </mxGraphModel>
  </diagram>
</mxfile>
